# Blender v2.79 (sub 0) OBJ File: '1Empty.blend'
# www.blender.org
# COPYRIGHT (c) 2019 Erogenous Tones
o Cube
v -0.746704 -0.746704 -0.746704
v 0.000000 0.000000 0.000000
v 0.746704 -0.746704 -0.746704
v 0.746704 0.746704 -0.746704
v -0.746704 -0.746704 0.746704
v -0.746704 0.746704 0.746704
v 0.000000 0.000000 0.000000
v 0.746704 0.746704 0.746704
v 0.000000 -0.746704 -0.746704
v -0.746704 0.000000 -0.746704
v 0.000000 0.746704 -0.746704
v 0.746704 0.000000 -0.746704
v 0.746704 -0.746704 0.000000
v 0.746704 0.746704 0.000000
v 0.746704 0.000000 0.746704
v 0.000000 -0.746704 0.746704
v 0.000000 0.746704 0.746704
v -0.746704 0.000000 0.746704
v -0.746704 -0.746704 0.000000
v -0.746704 0.746704 0.000000
v 0.000000 0.746704 0.000000
v 0.000000 -0.746704 0.000000
v -0.746704 0.000000 0.000000
v 0.000000 0.000000 0.746704
v 0.746704 0.000000 0.000000
v 0.000000 0.000000 -0.746704
vt 0.500030 0.999900
vt 0.000100 0.500030
vt 0.500000 0.500000
vt 0.500000 0.999900
vt 0.000100 0.500000
vt 0.500000 0.500000
vt 0.500000 0.999900
vt 0.000100 0.500000
vt 0.500000 0.500000
vt 0.000114 0.000086
vt 0.999914 0.000114
vt 0.000086 0.999886
vt 0.999900 0.499993
vt 0.500007 0.999900
vt 0.500000 0.500000
vt 0.999900 0.999900
vt 0.000100 0.999900
vt 0.999900 0.000100
vt 0.500000 0.500000
vt 0.999900 0.000100
vt 0.999900 0.500000
vt 0.999900 0.999900
vt 0.000100 0.999900
vt 0.000107 0.999907
vt 0.000100 0.500007
vt 0.499993 0.000100
vt 0.000093 0.000107
vt 0.999899 0.999901
vt 0.000101 0.000099
vt 0.999901 0.000101
vt 0.500000 0.500000
vt 0.000100 0.000100
vt 0.500000 0.000100
vt 0.999900 0.500000
vt 0.999900 0.000100
vt 0.999900 0.999900
vt 0.000100 0.000100
vt 0.500000 0.000100
vt 0.999890 0.000090
vt 0.000110 0.999910
vt 0.000090 0.000110
vt 0.999900 0.500000
vt 0.999910 0.999890
vt 0.999900 0.500000
vt 0.999900 0.000100
vt 0.999900 0.999900
vt 0.499970 0.000100
vt 0.999900 0.499970
vt 0.999870 0.000070
vt 0.000100 0.000100
vt 0.000128 0.000072
vt 0.999872 0.999928
vt 0.000072 0.999872
vt 0.999900 0.000100
vt 0.000100 0.999900
vt 0.000100 0.000100
vt 0.999928 0.000128
vt 0.000099 0.999899
vt 0.000100 0.999900
vt 0.000100 0.999900
vt 0.999907 0.999893
vt 0.500000 0.000100
vt 0.000100 0.500000
vt 0.000100 0.500000
vt 0.500000 0.999900
vn 0.0000 0.0000 -1.0000
vn 1.0000 0.0000 0.0000
vn 0.0000 0.0000 1.0000
vn 0.0000 -1.0000 0.0000
vn -1.0000 0.0000 0.0000
vn 0.0000 1.0000 0.0000
s off
f 11/1/1 12/2/1 26/3/1
f 14/4/2 15/5/2 25/6/2
f 17/7/3 18/8/3 24/9/3
f 23/10/1 20/11/1 2/12/1
f 16/13/4 19/14/4 22/15/4
f 21/16/5 11/17/5 2/18/5
f 21/19/6 6/20/6 17/21/6
f 14/4/6 17/21/6 8/22/6
f 4/23/6 21/19/6 14/4/6
f 22/15/4 1/24/4 9/25/4
f 13/26/4 9/25/4 3/27/4
f 7/28/2 16/29/2 22/30/2
f 23/31/5 1/32/5 19/33/5
f 18/34/5 19/33/5 5/35/5
f 6/36/5 23/31/5 18/34/5
f 24/9/3 5/37/3 16/38/3
f 7/39/4 15/40/4 24/41/4
f 8/22/3 24/9/3 15/42/3
f 25/43/4 15/40/4 7/39/4
f 12/44/2 13/26/2 3/45/2
f 4/46/2 25/6/2 12/44/2
f 26/3/1 3/27/1 9/47/1
f 10/48/1 9/47/1 1/49/1
f 2/18/5 11/17/5 26/50/5
f 10/51/6 2/52/6 26/53/6
f 13/54/3 25/43/3 7/55/3
f 13/54/3 7/55/3 22/56/3
f 10/51/6 23/57/6 2/52/6
f 20/11/1 21/16/1 2/12/1
f 16/29/2 7/28/2 24/58/2
f 11/1/1 4/23/1 12/2/1
f 14/4/2 8/59/2 15/5/2
f 17/7/3 6/60/3 18/8/3
f 16/13/4 5/61/4 19/14/4
f 21/19/6 20/62/6 6/20/6
f 14/4/6 21/19/6 17/21/6
f 4/23/6 11/63/6 21/19/6
f 22/15/4 19/14/4 1/24/4
f 13/26/4 22/15/4 9/25/4
f 23/31/5 10/64/5 1/32/5
f 18/34/5 23/31/5 19/33/5
f 6/36/5 20/65/5 23/31/5
f 24/9/3 18/8/3 5/37/3
f 8/22/3 17/7/3 24/9/3
f 12/44/2 25/6/2 13/26/2
f 4/46/2 14/4/2 25/6/2
f 26/3/1 12/2/1 3/27/1
f 10/48/1 26/3/1 9/47/1
